<svg xmlns="http://www.w3.org/2000/svg" viewBox="0 0 47.9 47.9"><defs><style>.cls-1{fill:#3b73ff;}</style></defs><title>Asset 1</title><g id="Layer_2" data-name="Layer 2"><g id="Layer_1-2" data-name="Layer 1"><path class="cls-1" d="M24,13.3h0a2.43,2.43,0,0,1-2.4-2.4V2.4A2.43,2.43,0,0,1,24,0h0a2.43,2.43,0,0,1,2.4,2.4v8.4A2.46,2.46,0,0,1,24,13.3Z"/><path class="cls-1" d="M16.4,16.4h0a2.48,2.48,0,0,1-3.4,0l-6-6A2.48,2.48,0,0,1,7,7H7a2.48,2.48,0,0,1,3.4,0l6,6A2.3,2.3,0,0,1,16.4,16.4Z"/><path class="cls-1" d="M13.3,24h0a2.43,2.43,0,0,1-2.4,2.4H2.4A2.43,2.43,0,0,1,0,24H0a2.43,2.43,0,0,1,2.4-2.4h8.4A2.46,2.46,0,0,1,13.3,24Z"/><path class="cls-1" d="M16.4,31.6h0a2.48,2.48,0,0,1,0,3.4l-6,6A2.48,2.48,0,0,1,7,41H7a2.48,2.48,0,0,1,0-3.4l6-6A2.3,2.3,0,0,1,16.4,31.6Z"/><path class="cls-1" d="M24,34.7h0a2.43,2.43,0,0,1,2.4,2.4v8.4A2.43,2.43,0,0,1,24,47.9h0a2.43,2.43,0,0,1-2.4-2.4V37.1A2.43,2.43,0,0,1,24,34.7Z"/><path class="cls-1" d="M31.6,31.6h0a2.48,2.48,0,0,1,3.4,0l6,6A2.48,2.48,0,0,1,41,41h0a2.48,2.48,0,0,1-3.4,0l-6-6A2.3,2.3,0,0,1,31.6,31.6Z"/><path class="cls-1" d="M34.7,24h0a2.43,2.43,0,0,1,2.4-2.4h8.4A2.43,2.43,0,0,1,47.9,24h0a2.43,2.43,0,0,1-2.4,2.4H37.1A2.43,2.43,0,0,1,34.7,24Z"/><path class="cls-1" d="M31.6,16.4h0a2.48,2.48,0,0,1,0-3.4l6-6A2.48,2.48,0,0,1,41,7h0a2.48,2.48,0,0,1,0,3.4l-6,6A2.3,2.3,0,0,1,31.6,16.4Z"/></g></g></svg>